<svg xmlns="http://www.w3.org/2000/svg" viewBox="0 0 900 620" role="img" aria-labelledby="title desc">
<title id="title">File versioning illustration</title><desc id="desc">File versions shown as layered documents with compare arrows.</desc>
<defs><linearGradient id="v" x1="0" x2="1" y1="0" y2="1"><stop stop-color="#28d7ff"/><stop offset="1" stop-color="#8affc1"/></linearGradient><linearGradient id="o" x1="0" x2="1" y1="0" y2="1"><stop stop-color="#ff9f1c"/><stop offset="1" stop-color="#ffd166"/></linearGradient></defs>
<rect width="900" height="620" rx="42" fill="#0a1629"/>
<g font-family="Arial"><g transform="translate(130 120)"><rect x="70" y="60" width="250" height="330" rx="28" fill="#0e1d34" stroke="#fff" stroke-opacity=".15"/><rect x="35" y="30" width="250" height="330" rx="28" fill="#101f36" stroke="#28d7ff" stroke-width="4"/><text x="80" y="98" fill="#eef7ff" font-size="30" font-weight="800">report.txt</text><rect x="80" y="135" width="150" height="16" rx="8" fill="#28d7ff"/><rect x="80" y="172" width="110" height="16" rx="8" fill="#8affc1"/><rect x="80" y="209" width="172" height="16" rx="8" fill="#fff" opacity=".24"/><rect x="80" y="270" width="92" height="34" rx="17" fill="url(#v)"/><text x="126" y="294" fill="#06111d" font-size="18" font-weight="900" text-anchor="middle">v3</text></g>
<g transform="translate(500 120)"><rect x="70" y="60" width="250" height="330" rx="28" fill="#0e1d34" stroke="#fff" stroke-opacity=".15"/><rect x="35" y="30" width="250" height="330" rx="28" fill="#101f36" stroke="#ff9f1c" stroke-width="4"/><text x="80" y="98" fill="#eef7ff" font-size="30" font-weight="800">report.txt</text><rect x="80" y="135" width="150" height="16" rx="8" fill="#ff9f1c"/><rect x="80" y="172" width="140" height="16" rx="8" fill="#ffd166"/><rect x="80" y="209" width="128" height="16" rx="8" fill="#fff" opacity=".24"/><rect x="80" y="270" width="92" height="34" rx="17" fill="url(#o)"/><text x="126" y="294" fill="#06111d" font-size="18" font-weight="900" text-anchor="middle">v4</text></g></g>
<path d="M385 310h130" stroke="#8affc1" stroke-width="12" stroke-linecap="round"/><path d="M495 284l32 26-32 26" fill="none" stroke="#8affc1" stroke-width="12" stroke-linecap="round" stroke-linejoin="round"/>
<text x="450" y="500" fill="#eef7ff" font-family="Arial" font-size="34" font-weight="800" text-anchor="middle">Compare · Tag · Restore</text>
</svg>
